<svg width="1440" height="4500" viewBox="0 0 1440 4500" fill="none" xmlns="http://www.w3.org/2000/svg">
<g clip-path="url(#clip0_6406_938)">
<rect width="1440" height="4500" fill="#F9FAFB"/>
<path d="M1229.44 2391.47H1222.38" stroke="#6B7280" stroke-width="0.2" stroke-linecap="round" stroke-linejoin="round"/>
<path d="M1236.64 2391.47H1232.8" stroke="#6B7280" stroke-width="0.2" stroke-linecap="round" stroke-linejoin="round"/>
<path d="M1222.38 2391.47C1221.2 2391.47 1220.26 2392.41 1220.26 2393.59C1220.26 2394.75 1221.2 2395.71 1222.38 2395.71C1223.54 2395.71 1224.5 2394.76 1224.5 2393.59V2392.3" stroke="#6B7280" stroke-width="0.2" stroke-linecap="round" stroke-linejoin="round"/>
<path d="M1224.51 2390.58C1224.51 2389.37 1223.52 2388.38 1222.29 2388.38H1213.51" stroke="#6B7280" stroke-width="0.2" stroke-linecap="round" stroke-linejoin="round"/>
<path d="M1211.97 2388.36H1208.65" stroke="#6B7280" stroke-width="0.2" stroke-linecap="round" stroke-linejoin="round"/>
<path d="M1207.31 2388.36H1206" stroke="#6B7280" stroke-width="0.2" stroke-linecap="round" stroke-linejoin="round"/>
<path d="M1213.22 2384H1203.49" stroke="#6B7280" stroke-width="0.2" stroke-linecap="round" stroke-linejoin="round"/>
<path d="M1200.14 2384H1196" stroke="#6B7280" stroke-width="0.2" stroke-linecap="round" stroke-linejoin="round"/>
<path d="M1283.99 2394.75H1280.37" stroke="#6B7280" stroke-width="0.2" stroke-linecap="round" stroke-linejoin="round"/>
<path d="M1287.62 2394.75H1285.18" stroke="#6B7280" stroke-width="0.2" stroke-linecap="round" stroke-linejoin="round"/>
<path d="M1299.78 2394.75H1290.49" stroke="#6B7280" stroke-width="0.2" stroke-linecap="round" stroke-linejoin="round"/>
<path d="M1292.27 2395.69C1292.5 2396.04 1292.63 2396.44 1292.63 2396.88C1292.63 2398.06 1291.69 2399 1290.51 2399C1289.35 2399 1288.39 2398.06 1288.39 2396.88C1288.39 2395.72 1289.34 2394.76 1290.51 2394.76" stroke="#6B7280" stroke-width="0.2" stroke-linecap="round" stroke-linejoin="round"/>
<path d="M1269.83 2391.47H1281.68C1282.59 2391.47 1283.31 2392.22 1283.31 2393.11C1283.31 2394.02 1282.57 2394.75 1281.68 2394.75" stroke="#6B7280" stroke-width="0.2" stroke-linecap="round" stroke-linejoin="round"/>
<g opacity="0.21">
<mask id="path-14-inside-1_6406_938" fill="white">
<path d="M330.59 269H318.01H256.23C247.73 269 240.68 277.485 240.68 288.177C240.68 298.868 247.56 307.353 256.23 307.353H174.05C160.88 307.353 150 320.561 150 337.012C150 353.266 160.71 366.671 174.05 366.671H318.1H343.42H346.91C368.75 366.671 386.34 344.769 386.34 318.045C386.34 291.112 368.58 269.419 346.91 269.419H343.42"/>
</mask>
<path d="M330.59 269H318.01H256.23C247.73 269 240.68 277.485 240.68 288.177C240.68 298.868 247.56 307.353 256.23 307.353H174.05C160.88 307.353 150 320.561 150 337.012C150 353.266 160.71 366.671 174.05 366.671H318.1H343.42H346.91C368.75 366.671 386.34 344.769 386.34 318.045C386.34 291.112 368.58 269.419 346.91 269.419H343.42" fill="white"/>
<path d="M330.59 268H318.01V270H330.59V268ZM318.01 268H256.23V270H318.01V268ZM256.23 268C246.998 268 239.68 277.131 239.68 288.177H241.68C241.68 277.838 248.462 270 256.23 270V268ZM239.68 288.177C239.68 299.215 246.822 308.353 256.23 308.353V306.353C248.298 306.353 241.68 298.522 241.68 288.177H239.68ZM256.23 306.353H174.05V308.353H256.23V306.353ZM174.05 306.353C160.146 306.353 149 320.21 149 337.012H151C151 320.912 161.614 308.353 174.05 308.353V306.353ZM149 337.012C149 353.607 159.968 367.671 174.05 367.671V365.671C161.452 365.671 151 352.924 151 337.012H149ZM174.05 367.671H318.1V365.671H174.05V367.671ZM318.1 367.671H343.42V365.671H318.1V367.671ZM343.42 367.671H346.91V365.671H343.42V367.671ZM346.91 367.671C369.49 367.671 387.34 345.112 387.34 318.045H385.34C385.34 344.425 368.01 365.671 346.91 365.671V367.671ZM387.34 318.045C387.34 290.762 369.315 268.419 346.91 268.419V270.419C367.845 270.419 385.34 291.461 385.34 318.045H387.34ZM346.91 268.419H343.42V270.419H346.91V268.419Z" fill="#6B7280" mask="url(#path-14-inside-1_6406_938)"/>
<path d="M330.59 269H318.01H256.23C247.73 269 240.68 277.485 240.68 288.177C240.68 298.868 247.56 307.353 256.23 307.353H174.05C160.88 307.353 150 320.561 150 337.012C150 353.266 160.71 366.671 174.05 366.671H318.1H343.42H346.91C368.75 366.671 386.34 344.769 386.34 318.045C386.34 291.112 368.58 269.419 346.91 269.419H343.42" fill="white"/>
<path d="M330.59 269H318.01H256.23C247.73 269 240.68 277.485 240.68 288.177C240.68 298.868 247.56 307.353 256.23 307.353H174.05C160.88 307.353 150 320.561 150 337.012C150 353.266 160.71 366.671 174.05 366.671H318.1H343.42H346.91C368.75 366.671 386.34 344.769 386.34 318.045C386.34 291.112 368.58 269.419 346.91 269.419H343.42" stroke="#6B7280" stroke-width="2" stroke-linecap="round" stroke-linejoin="round"/>
<path d="M348.19 379.989H321H348.19Z" fill="white"/>
<path d="M348.19 379.989H321" stroke="#6B7280" stroke-width="2" stroke-linecap="round" stroke-linejoin="round"/>
<path d="M256.23 307.353H274.67H256.23Z" fill="white"/>
<path d="M256.23 307.353H274.67" stroke="#6B7280" stroke-width="2" stroke-linecap="round" stroke-linejoin="round"/>
<path d="M283.43 307.353H289.29H283.43Z" fill="white"/>
<path d="M283.43 307.353H289.29" stroke="#6B7280" stroke-width="2" stroke-linecap="round" stroke-linejoin="round"/>
</g>
<g opacity="0.21">
<mask id="path-24-inside-2_6406_938" fill="white">
<path d="M323.59 2382.57H311.01H249.23C240.73 2382.57 233.68 2391.06 233.68 2401.75C233.68 2412.44 240.56 2420.92 249.23 2420.92H167.05C153.88 2420.92 143 2434.13 143 2450.58C143 2466.84 153.71 2480.24 167.05 2480.24H311.1H336.42H339.91C361.75 2480.24 379.34 2458.34 379.34 2431.62C379.34 2404.68 361.58 2382.99 339.91 2382.99H336.42"/>
</mask>
<path d="M323.59 2382.57H311.01H249.23C240.73 2382.57 233.68 2391.06 233.68 2401.75C233.68 2412.44 240.56 2420.92 249.23 2420.92H167.05C153.88 2420.92 143 2434.13 143 2450.58C143 2466.84 153.71 2480.24 167.05 2480.24H311.1H336.42H339.91C361.75 2480.24 379.34 2458.34 379.34 2431.62C379.34 2404.68 361.58 2382.99 339.91 2382.99H336.42" fill="white"/>
<path d="M323.59 2381.57H311.01V2383.57H323.59V2381.57ZM311.01 2381.57H249.23V2383.57H311.01V2381.57ZM249.23 2381.57C239.998 2381.57 232.68 2390.7 232.68 2401.75H234.68C234.68 2391.41 241.462 2383.57 249.23 2383.57V2381.57ZM232.68 2401.75C232.68 2412.79 239.822 2421.92 249.23 2421.92V2419.92C241.298 2419.92 234.68 2412.09 234.68 2401.75H232.68ZM249.23 2419.92H167.05V2421.92H249.23V2419.92ZM167.05 2419.92C153.146 2419.92 142 2433.78 142 2450.58H144C144 2434.48 154.614 2421.92 167.05 2421.92V2419.92ZM142 2450.58C142 2467.18 152.968 2481.24 167.05 2481.24V2479.24C154.452 2479.24 144 2466.49 144 2450.58H142ZM167.05 2481.24H311.1V2479.24H167.05V2481.24ZM311.1 2481.24H336.42V2479.24H311.1V2481.24ZM336.42 2481.24H339.91V2479.24H336.42V2481.24ZM339.91 2481.24C362.49 2481.24 380.34 2458.68 380.34 2431.62H378.34C378.34 2458 361.01 2479.24 339.91 2479.24V2481.24ZM380.34 2431.62C380.34 2404.33 362.315 2381.99 339.91 2381.99V2383.99C360.845 2383.99 378.34 2405.03 378.34 2431.62H380.34ZM339.91 2381.99H336.42V2383.99H339.91V2381.99Z" fill="#6B7280" mask="url(#path-24-inside-2_6406_938)"/>
<path d="M323.59 2382.57H311.01H249.23C240.73 2382.57 233.68 2391.06 233.68 2401.75C233.68 2412.44 240.56 2420.92 249.23 2420.92H167.05C153.88 2420.92 143 2434.13 143 2450.58C143 2466.84 153.71 2480.24 167.05 2480.24H311.1H336.42H339.91C361.75 2480.24 379.34 2458.34 379.34 2431.62C379.34 2404.68 361.58 2382.99 339.91 2382.99H336.42" fill="white"/>
<path d="M323.59 2382.57H311.01H249.23C240.73 2382.57 233.68 2391.06 233.68 2401.75C233.68 2412.44 240.56 2420.92 249.23 2420.92H167.05C153.88 2420.92 143 2434.13 143 2450.58C143 2466.84 153.71 2480.24 167.05 2480.24H311.1H336.42H339.91C361.75 2480.24 379.34 2458.34 379.34 2431.62C379.34 2404.68 361.58 2382.99 339.91 2382.99H336.42" stroke="#6B7280" stroke-width="2" stroke-linecap="round" stroke-linejoin="round"/>
<path d="M341.19 2493.56H314H341.19Z" fill="white"/>
<path d="M341.19 2493.56H314" stroke="#6B7280" stroke-width="2" stroke-linecap="round" stroke-linejoin="round"/>
<path d="M249.23 2420.92H267.67H249.23Z" fill="white"/>
<path d="M249.23 2420.92H267.67" stroke="#6B7280" stroke-width="2" stroke-linecap="round" stroke-linejoin="round"/>
<path d="M276.43 2420.92H282.29H276.43Z" fill="white"/>
<path d="M276.43 2420.92H282.29" stroke="#6B7280" stroke-width="2" stroke-linecap="round" stroke-linejoin="round"/>
</g>
<g opacity="0.21">
<mask id="path-34-inside-3_6406_938" fill="white">
<path d="M1186.51 380H1197.46H1251.21C1258.61 380 1264.74 387.383 1264.74 396.686C1264.74 405.989 1258.76 413.372 1251.21 413.372H1322.72C1334.18 413.372 1343.65 424.864 1343.65 439.179C1343.65 453.321 1334.33 464.985 1322.72 464.985H1197.38H1175.35H1172.31C1153.31 464.985 1138 445.928 1138 422.675C1138 399.24 1153.45 380.365 1172.31 380.365H1175.35"/>
</mask>
<path d="M1186.51 380H1197.46H1251.21C1258.61 380 1264.74 387.383 1264.74 396.686C1264.74 405.989 1258.76 413.372 1251.21 413.372H1322.72C1334.18 413.372 1343.65 424.864 1343.65 439.179C1343.65 453.321 1334.33 464.985 1322.72 464.985H1197.38H1175.35H1172.31C1153.31 464.985 1138 445.928 1138 422.675C1138 399.24 1153.45 380.365 1172.31 380.365H1175.35" fill="white"/>
<path d="M1186.51 379H1197.46V381H1186.51V379ZM1197.46 379H1251.21V381H1197.46V379ZM1251.21 379C1259.34 379 1265.74 387.029 1265.74 396.686H1263.74C1263.74 387.736 1257.88 381 1251.21 381V379ZM1265.74 396.686C1265.74 406.335 1259.49 414.372 1251.21 414.372V412.372C1258.02 412.372 1263.74 405.643 1263.74 396.686H1265.74ZM1251.21 412.372H1322.72V414.372H1251.21V412.372ZM1322.72 412.372C1334.91 412.372 1344.65 424.513 1344.65 439.179H1342.65C1342.65 425.215 1333.44 414.372 1322.72 414.372V412.372ZM1344.65 439.179C1344.65 453.663 1335.07 465.985 1322.72 465.985V463.985C1333.58 463.985 1342.65 452.98 1342.65 439.179H1344.65ZM1322.72 465.985H1197.38V463.985H1322.72V465.985ZM1197.38 465.985H1175.35V463.985H1197.38V465.985ZM1175.35 465.985H1172.31V463.985H1175.35V465.985ZM1172.31 465.985C1152.57 465.985 1137 446.271 1137 422.675H1139C1139 445.585 1154.05 463.985 1172.31 463.985V465.985ZM1137 422.675C1137 398.89 1152.72 379.365 1172.31 379.365V381.365C1154.19 381.365 1139 399.589 1139 422.675H1137ZM1172.31 379.365H1175.35V381.365H1172.31V379.365Z" fill="#6B7280" mask="url(#path-34-inside-3_6406_938)"/>
<path d="M1186.51 380H1197.46H1251.21C1258.61 380 1264.74 387.383 1264.74 396.686C1264.74 405.989 1258.76 413.372 1251.21 413.372H1322.72C1334.18 413.372 1343.65 424.864 1343.65 439.179C1343.65 453.321 1334.33 464.985 1322.72 464.985H1197.38H1175.35H1172.31C1153.31 464.985 1138 445.928 1138 422.675C1138 399.24 1153.45 380.365 1172.31 380.365H1175.35" fill="white"/>
<path d="M1186.51 380H1197.46H1251.21C1258.61 380 1264.74 387.383 1264.74 396.686C1264.74 405.989 1258.76 413.372 1251.21 413.372H1322.72C1334.18 413.372 1343.65 424.864 1343.65 439.179C1343.65 453.321 1334.33 464.985 1322.72 464.985H1197.38H1175.35H1172.31C1153.31 464.985 1138 445.928 1138 422.675C1138 399.24 1153.45 380.365 1172.31 380.365H1175.35" stroke="#6B7280" stroke-width="2" stroke-linecap="round" stroke-linejoin="round"/>
<path d="M1175.98 489.756H1199.64H1175.98Z" fill="white"/>
<path d="M1175.98 489.756H1199.64" stroke="#6B7280" stroke-width="2" stroke-linecap="round" stroke-linejoin="round"/>
<path d="M1251.21 413.372H1235.17H1251.21Z" fill="white"/>
<path d="M1251.21 413.372H1235.17" stroke="#6B7280" stroke-width="2" stroke-linecap="round" stroke-linejoin="round"/>
<path d="M1227.54 413.372H1222.45H1227.54Z" fill="white"/>
<path d="M1227.54 413.372H1222.45" stroke="#6B7280" stroke-width="2" stroke-linecap="round" stroke-linejoin="round"/>
</g>
<g opacity="0.21">
<mask id="path-44-inside-4_6406_938" fill="white">
<path d="M1176.51 1989.18H1187.46H1241.21C1248.61 1989.18 1254.74 1996.56 1254.74 2005.86C1254.74 2015.16 1248.76 2022.55 1241.21 2022.55H1312.72C1324.18 2022.55 1333.65 2034.04 1333.65 2048.35C1333.65 2062.5 1324.33 2074.16 1312.72 2074.16H1187.38H1165.35H1162.31C1143.31 2074.16 1128 2055.1 1128 2031.85C1128 2008.41 1143.45 1989.54 1162.31 1989.54H1165.35"/>
</mask>
<path d="M1176.51 1989.18H1187.46H1241.21C1248.61 1989.18 1254.74 1996.56 1254.74 2005.86C1254.74 2015.16 1248.76 2022.55 1241.21 2022.55H1312.72C1324.18 2022.55 1333.65 2034.04 1333.65 2048.35C1333.65 2062.5 1324.33 2074.16 1312.72 2074.16H1187.38H1165.35H1162.31C1143.31 2074.16 1128 2055.1 1128 2031.85C1128 2008.41 1143.45 1989.54 1162.31 1989.54H1165.35" fill="white"/>
<path d="M1176.51 1988.18H1187.46V1990.18H1176.51V1988.18ZM1187.46 1988.18H1241.21V1990.18H1187.46V1988.18ZM1241.21 1988.18C1249.34 1988.18 1255.74 1996.2 1255.74 2005.86H1253.74C1253.74 1996.91 1247.88 1990.18 1241.21 1990.18V1988.18ZM1255.74 2005.86C1255.74 2015.51 1249.49 2023.55 1241.21 2023.55V2021.55C1248.02 2021.55 1253.74 2014.82 1253.74 2005.86H1255.74ZM1241.21 2021.55H1312.72V2023.55H1241.21V2021.55ZM1312.72 2021.55C1324.91 2021.55 1334.65 2033.69 1334.65 2048.35H1332.65C1332.65 2034.39 1323.44 2023.55 1312.72 2023.55V2021.55ZM1334.65 2048.35C1334.65 2062.84 1325.07 2075.16 1312.72 2075.16V2073.16C1323.58 2073.16 1332.65 2062.15 1332.65 2048.35H1334.65ZM1312.72 2075.16H1187.38V2073.16H1312.72V2075.16ZM1187.38 2075.16H1165.35V2073.16H1187.38V2075.16ZM1165.35 2075.16H1162.31V2073.16H1165.35V2075.16ZM1162.31 2075.16C1142.57 2075.16 1127 2055.45 1127 2031.85H1129C1129 2054.76 1144.05 2073.16 1162.31 2073.16V2075.16ZM1127 2031.85C1127 2008.07 1142.72 1988.54 1162.31 1988.54V1990.54C1144.19 1990.54 1129 2008.76 1129 2031.85H1127ZM1162.31 1988.54H1165.35V1990.54H1162.31V1988.54Z" fill="#6B7280" mask="url(#path-44-inside-4_6406_938)"/>
<path d="M1176.51 1989.18H1187.46H1241.21C1248.61 1989.18 1254.74 1996.56 1254.74 2005.86C1254.74 2015.16 1248.76 2022.55 1241.21 2022.55H1312.72C1324.18 2022.55 1333.65 2034.04 1333.65 2048.35C1333.65 2062.5 1324.33 2074.16 1312.72 2074.16H1187.38H1165.35H1162.31C1143.31 2074.16 1128 2055.1 1128 2031.85C1128 2008.41 1143.45 1989.54 1162.31 1989.54H1165.35" fill="white"/>
<path d="M1176.51 1989.18H1187.46H1241.21C1248.61 1989.18 1254.74 1996.56 1254.74 2005.86C1254.74 2015.16 1248.76 2022.55 1241.21 2022.55H1312.72C1324.18 2022.55 1333.65 2034.04 1333.65 2048.35C1333.65 2062.5 1324.33 2074.16 1312.72 2074.16H1187.38H1165.35H1162.31C1143.31 2074.16 1128 2055.1 1128 2031.85C1128 2008.41 1143.45 1989.54 1162.31 1989.54H1165.35" stroke="#6B7280" stroke-width="2" stroke-linecap="round" stroke-linejoin="round"/>
<path d="M1165.98 2098.93H1189.64H1165.98Z" fill="white"/>
<path d="M1165.98 2098.93H1189.64" stroke="#6B7280" stroke-width="2" stroke-linecap="round" stroke-linejoin="round"/>
<path d="M1241.21 2022.55H1225.17H1241.21Z" fill="white"/>
<path d="M1241.21 2022.55H1225.17" stroke="#6B7280" stroke-width="2" stroke-linecap="round" stroke-linejoin="round"/>
<path d="M1217.54 2022.55H1212.45H1217.54Z" fill="white"/>
<path d="M1217.54 2022.55H1212.45" stroke="#6B7280" stroke-width="2" stroke-linecap="round" stroke-linejoin="round"/>
</g>
<path d="M1307.27 1141.5H1234.82C1246.73 1141.5 1256.43 1129.49 1256.43 1114.75C1256.43 1100.01 1246.73 1088 1234.82 1088H1106.14C1094.23 1088 1084.52 1100.01 1084.52 1114.75C1084.52 1129.49 1094.23 1141.5 1106.14 1141.5H1071.73C1060.26 1141.5 1051 1152.97 1051 1167.16C1051 1181.36 1060.26 1192.82 1071.73 1192.82H1307.27C1318.74 1192.82 1328 1181.36 1328 1167.16C1327.89 1152.97 1318.63 1141.5 1307.27 1141.5Z" stroke="#6B7280" stroke-width="0.5" stroke-linecap="round" stroke-linejoin="round"/>
<path d="M1307.27 3267.5H1234.82C1246.73 3267.5 1256.43 3255.49 1256.43 3240.75C1256.43 3226.01 1246.73 3214 1234.82 3214H1106.14C1094.23 3214 1084.52 3226.01 1084.52 3240.75C1084.52 3255.49 1094.23 3267.5 1106.14 3267.5H1071.73C1060.26 3267.5 1051 3278.97 1051 3293.16C1051 3307.36 1060.26 3318.82 1071.73 3318.82H1307.27C1318.74 3318.82 1328 3307.36 1328 3293.16C1327.89 3278.97 1318.63 3267.5 1307.27 3267.5Z" stroke="#6B7280" stroke-width="0.5" stroke-linecap="round" stroke-linejoin="round"/>
<path d="M164.731 1353.5H237.179C225.27 1353.5 215.566 1341.49 215.566 1326.75C215.566 1312.01 225.27 1300 237.179 1300H365.865C377.774 1300 387.478 1312.01 387.478 1326.75C387.478 1341.49 377.774 1353.5 365.865 1353.5H400.269C411.737 1353.5 421 1364.97 421 1379.16C421 1393.36 411.737 1404.82 400.269 1404.82H164.731C153.263 1404.82 144 1393.36 144 1379.16C144.11 1364.97 153.373 1353.5 164.731 1353.5Z" stroke="#6B7280" stroke-width="0.5" stroke-linecap="round" stroke-linejoin="round"/>
<path d="M163.731 3478.5H236.179C224.27 3478.5 214.566 3466.49 214.566 3451.75C214.566 3437.01 224.27 3425 236.179 3425H364.865C376.774 3425 386.478 3437.01 386.478 3451.75C386.478 3466.49 376.774 3478.5 364.865 3478.5H399.269C410.737 3478.5 420 3489.97 420 3504.16C420 3518.36 410.737 3529.82 399.269 3529.82H163.731C152.263 3529.82 143 3518.36 143 3504.16C143.11 3489.97 152.373 3478.5 163.731 3478.5Z" stroke="#6B7280" stroke-width="0.5" stroke-linecap="round" stroke-linejoin="round"/>
<g opacity="0.2">
<path d="M1330.54 4109.99C1355.15 4109.99 1375.06 4085.44 1375.06 4055.08V3902.4C1375.06 3872.06 1355.15 3847.5 1330.54 3847.5C1305.92 3847.5 1286 3872.06 1286 3902.4V4055.08C1286.36 4085.44 1306.27 4109.99 1330.54 4109.99Z" stroke="#6B7280" stroke-width="1.51457" stroke-linecap="round" stroke-linejoin="round"/>
<path d="M1330.54 4167.13V3979.18" stroke="#6B7280" stroke-width="1.51457" stroke-linecap="round" stroke-linejoin="round"/>
<path d="M1330.54 4500.14V4167.13" stroke="#6B7280" stroke-width="1.51457" stroke-linecap="round" stroke-linejoin="round"/>
<path d="M1311.35 4007.75L1330.53 4031.42L1350.07 4007.75" stroke="#6B7280" stroke-width="1.51457" stroke-linecap="round" stroke-linejoin="round"/>
<mask id="path-62-inside-5_6406_938" fill="white">
<path d="M1195.87 4015.8C1209.62 4006.42 1219.04 3988.56 1219.04 3967.59V3814.92C1219.04 3784.57 1199.14 3760 1174.52 3760C1149.91 3760 1130 3784.57 1130 3814.92V3967.59C1130 3997.94 1149.91 4022.49 1174.52 4022.49"/>
</mask>
<path d="M1196.3 4016.42C1210.28 4006.89 1219.8 3988.78 1219.8 3967.59H1218.28C1218.28 3988.34 1208.96 4005.95 1195.45 4015.17L1196.3 4016.42ZM1219.8 3967.59V3814.92H1218.28V3967.59H1219.8ZM1219.8 3814.92C1219.8 3784.3 1199.7 3759.24 1174.52 3759.24V3760.76C1198.58 3760.76 1218.28 3784.83 1218.28 3814.92H1219.8ZM1174.52 3759.24C1149.35 3759.24 1129.24 3784.3 1129.24 3814.92H1130.76C1130.76 3784.83 1150.46 3760.76 1174.52 3760.76V3759.24ZM1129.24 3814.92V3967.59H1130.76V3814.92H1129.24ZM1129.24 3967.59C1129.24 3998.2 1149.35 4023.25 1174.52 4023.25V4021.73C1150.46 4021.73 1130.76 3997.68 1130.76 3967.59H1129.24Z" fill="#6B7280" mask="url(#path-62-inside-5_6406_938)"/>
<path d="M1195.87 4015.8C1209.62 4006.42 1219.04 3988.56 1219.04 3967.59V3814.92C1219.04 3784.57 1199.14 3760 1174.52 3760C1149.91 3760 1130 3784.57 1130 3814.92V3967.59C1130 3997.94 1149.91 4022.49 1174.52 4022.49" stroke="#6B7280" stroke-width="1.51457" stroke-linecap="round" stroke-linejoin="round"/>
<path d="M1174.87 4079.63V3891.69" stroke="#6B7280" stroke-width="1.51457" stroke-linecap="round" stroke-linejoin="round"/>
<path d="M1174.87 4500.14V4079.63" stroke="#6B7280" stroke-width="1.51457" stroke-linecap="round" stroke-linejoin="round"/>
<path d="M1155.33 3919.82L1174.87 3943.92L1194.43 3919.82" stroke="#6B7280" stroke-width="1.51457" stroke-linecap="round" stroke-linejoin="round"/>
</g>
<g opacity="0.2">
<path d="M290.271 4232.55C307.612 4232.55 321.635 4215.26 321.635 4193.88V4086.32C321.635 4064.95 307.612 4047.64 290.271 4047.64C272.931 4047.64 258.897 4064.95 258.897 4086.32V4193.88C259.155 4215.26 273.178 4232.55 290.271 4232.55Z" stroke="#6B7280" stroke-width="1.00224" stroke-linecap="round" stroke-linejoin="round"/>
<path d="M290.271 4272.81V4140.41" stroke="#6B7280" stroke-width="1.00224" stroke-linecap="round" stroke-linejoin="round"/>
<path d="M290.271 4507.41V4272.81" stroke="#6B7280" stroke-width="1.00224" stroke-linecap="round" stroke-linejoin="round"/>
<path d="M276.752 4160.53L290.271 4177.21L304.036 4160.53" stroke="#6B7280" stroke-width="1.00224" stroke-linecap="round" stroke-linejoin="round"/>
<mask id="path-72-inside-6_6406_938" fill="white">
<path d="M195.407 4166.2C205.092 4159.59 211.727 4147.02 211.727 4132.24V4024.69C211.727 4003.31 197.704 3986 180.364 3986C163.023 3986 149 4003.31 149 4024.69V4132.24C149 4153.62 163.023 4170.92 180.364 4170.92"/>
</mask>
<path d="M195.689 4166.62C205.528 4159.9 212.228 4147.16 212.228 4132.24H211.226C211.226 4146.87 204.655 4159.29 195.124 4165.79L195.689 4166.62ZM212.228 4132.24V4024.69H211.226V4132.24H212.228ZM212.228 4024.69C212.228 4003.13 198.074 3985.5 180.364 3985.5V3986.5C197.334 3986.5 211.226 4003.48 211.226 4024.69H212.228ZM180.364 3985.5C162.653 3985.5 148.499 4003.13 148.499 4024.69H149.501C149.501 4003.48 163.393 3986.5 180.364 3986.5V3985.5ZM148.499 4024.69V4132.24H149.501V4024.69H148.499ZM148.499 4132.24C148.499 4153.8 162.653 4171.42 180.364 4171.42V4170.42C163.393 4170.42 149.501 4153.45 149.501 4132.24H148.499Z" fill="#6B7280" mask="url(#path-72-inside-6_6406_938)"/>
<path d="M195.407 4166.2C205.092 4159.59 211.727 4147.02 211.727 4132.24V4024.69C211.727 4003.31 197.704 3986 180.364 3986C163.023 3986 149 4003.31 149 4024.69V4132.24C149 4153.62 163.023 4170.92 180.364 4170.92" stroke="#6B7280" stroke-width="1.00224" stroke-linecap="round" stroke-linejoin="round"/>
<path d="M180.61 4211.17V4078.77" stroke="#6B7280" stroke-width="1.00224" stroke-linecap="round" stroke-linejoin="round"/>
<path d="M180.61 4507.41V4211.17" stroke="#6B7280" stroke-width="1.00224" stroke-linecap="round" stroke-linejoin="round"/>
<path d="M166.845 4098.59L180.611 4115.57L194.386 4098.59" stroke="#6B7280" stroke-width="1.00224" stroke-linecap="round" stroke-linejoin="round"/>
</g>
<path d="M131 1321C159.17 1321 182 1298.17 182 1270C182 1241.83 159.17 1219 131 1219C102.83 1219 80 1241.83 80 1270C80 1298.17 102.83 1321 131 1321Z" stroke="#6B7280" stroke-width="0.5" stroke-linecap="round" stroke-linejoin="round"/>
<path d="M107.216 1267.85L124.451 1285.14L154.837 1254.75" stroke="#6B7280" stroke-width="0.5" stroke-linecap="round" stroke-linejoin="round"/>
<path d="M163.482 1353.43C145.605 1353.43 131.054 1338.88 131.054 1321" stroke="#6B7280" stroke-width="0.5" stroke-linecap="round" stroke-linejoin="round"/>
<path d="M1318.06 1813.56C1325.67 1800 1326.15 1786.43 1319.3 1779.44C1303.81 1765.12 1291.06 1783.62 1291.06 1783.62C1291.06 1783.62 1278.32 1765.12 1262.83 1779.44C1251.11 1791.57 1260.78 1822.47 1291.06 1840.49C1301.07 1834.53 1308.88 1827.27 1314.29 1819.59" fill="#0097AE"/>
<path d="M1318.06 1813.56C1325.67 1800 1326.15 1786.43 1319.3 1779.44C1303.81 1765.12 1291.06 1783.62 1291.06 1783.62C1291.06 1783.62 1278.32 1765.12 1262.83 1779.44C1251.11 1791.57 1260.78 1822.47 1291.06 1840.49C1301.07 1834.53 1308.88 1827.27 1314.29 1819.59" stroke="#25282D" stroke-width="0.2"/>
<path d="M1318.06 1813.56C1325.67 1800 1326.15 1786.43 1319.3 1779.44C1303.81 1765.12 1291.06 1783.62 1291.06 1783.62C1291.06 1783.62 1278.32 1765.12 1262.83 1779.44C1251.11 1791.57 1260.78 1822.47 1291.06 1840.49C1301.07 1834.53 1308.88 1827.27 1314.29 1819.59" stroke="#25282D" stroke-width="0.2" stroke-linecap="round" stroke-linejoin="round"/>
<path d="M176.064 3406.56C183.671 3393 184.149 3379.43 177.298 3372.44C161.81 3358.12 149.065 3376.62 149.065 3376.62C149.065 3376.62 136.32 3358.12 120.832 3372.44C109.115 3384.57 118.777 3415.47 149.065 3433.49C159.069 3427.53 166.881 3420.27 172.295 3412.59" fill="#0097AE"/>
<path d="M176.064 3406.56C183.671 3393 184.149 3379.43 177.298 3372.44C161.81 3358.12 149.065 3376.62 149.065 3376.62C149.065 3376.62 136.32 3358.12 120.832 3372.44C109.115 3384.57 118.777 3415.47 149.065 3433.49C159.069 3427.53 166.881 3420.27 172.295 3412.59" stroke="#25282D" stroke-width="0.2"/>
<path d="M176.064 3406.56C183.671 3393 184.149 3379.43 177.298 3372.44C161.81 3358.12 149.065 3376.62 149.065 3376.62C149.065 3376.62 136.32 3358.12 120.832 3372.44C109.115 3384.57 118.777 3415.47 149.065 3433.49C159.069 3427.53 166.881 3420.27 172.295 3412.59" stroke="#25282D" stroke-width="0.2" stroke-linecap="round" stroke-linejoin="round"/>
<path d="M1357.66 1013.83L1359.42 1010.67C1360.02 1009.59 1359.71 1008.28 1358.74 1007.74L1318.12 985.153C1317.14 984.61 1315.87 985.047 1315.27 986.124L1311.6 992.73L1269.55 1068.36C1268.96 1069.43 1269.27 1070.74 1270.23 1071.27L1310.86 1093.86C1311.82 1094.39 1313.09 1093.96 1313.68 1092.9L1357.64 1013.82L1357.66 1013.83Z" stroke="#6B7280" stroke-width="0.175809" stroke-linecap="round" stroke-linejoin="round"/>
<path d="M1330.59 997.677L1339.29 1002.51" stroke="#6B7280" stroke-width="0.175809" stroke-linecap="round" stroke-linejoin="round"/>
<path d="M1340.6 1003.24L1341.53 1003.76" stroke="#6B7280" stroke-width="0.175809" stroke-linecap="round" stroke-linejoin="round"/>
<mask id="path-90-inside-7_6406_938" fill="white">
<path d="M1296.92 1075.59C1297.14 1076.42 1297.02 1077.38 1296.55 1078.24C1295.61 1079.91 1293.63 1080.59 1292.13 1079.75C1290.62 1078.91 1290.15 1076.87 1291.07 1075.2C1292 1073.53 1293.99 1072.85 1295.49 1073.69C1295.94 1073.94 1296.28 1074.28 1296.54 1074.7"/>
</mask>
<path d="M1296.55 1078.24L1296.7 1078.33L1296.7 1078.33L1296.55 1078.24ZM1292.13 1079.75L1292.21 1079.6L1292.21 1079.59L1292.13 1079.75ZM1291.07 1075.2L1290.92 1075.11L1290.92 1075.11L1291.07 1075.2ZM1295.49 1073.69L1295.41 1073.85L1295.41 1073.85L1295.49 1073.69ZM1296.75 1075.63C1296.95 1076.42 1296.85 1077.34 1296.39 1078.15L1296.7 1078.33C1297.2 1077.43 1297.32 1076.42 1297.09 1075.54L1296.75 1075.63ZM1296.39 1078.15C1295.5 1079.76 1293.62 1080.38 1292.21 1079.6L1292.04 1079.9C1293.65 1080.8 1295.73 1080.07 1296.7 1078.33L1296.39 1078.15ZM1292.21 1079.59C1290.8 1078.81 1290.34 1076.89 1291.23 1075.29L1290.92 1075.11C1289.95 1076.86 1290.43 1079.01 1292.04 1079.9L1292.21 1079.59ZM1291.23 1075.29C1292.12 1073.69 1294 1073.06 1295.41 1073.85L1295.58 1073.54C1293.97 1072.65 1291.89 1073.37 1290.92 1075.11L1291.23 1075.29ZM1295.41 1073.85C1295.82 1074.07 1296.15 1074.4 1296.39 1074.79L1296.69 1074.61C1296.42 1074.17 1296.05 1073.8 1295.58 1073.54L1295.41 1073.85Z" fill="#6B7280" mask="url(#path-90-inside-7_6406_938)"/>
<path d="M1296.92 1075.59C1297.14 1076.42 1297.02 1077.38 1296.55 1078.24C1295.61 1079.91 1293.63 1080.59 1292.13 1079.75C1290.62 1078.91 1290.15 1076.87 1291.07 1075.2C1292 1073.53 1293.99 1072.85 1295.49 1073.69C1295.94 1073.94 1296.28 1074.28 1296.54 1074.7" stroke="#6B7280" stroke-width="0.175809" stroke-linecap="round" stroke-linejoin="round"/>
<path d="M1311.61 992.738L1355.74 1017.27" stroke="#6B7280" stroke-width="0.175809" stroke-linecap="round" stroke-linejoin="round"/>
<path d="M1319.13 1083.14L1275 1058.6" stroke="#6B7280" stroke-width="0.175809" stroke-linecap="round" stroke-linejoin="round"/>
<path d="M1329.12 1036.67C1329.11 1036.65 1329.11 1036.65 1329.1 1036.64L1324.01 1037.37L1324 1037.37L1324 1037.34L1326.21 1033.37C1326.21 1033.35 1326.21 1033.35 1326.2 1033.34L1311.58 1025.22C1311.57 1025.21 1311.57 1025.21 1311.56 1025.23L1305.06 1036.91C1305.05 1036.93 1305.05 1036.93 1305.06 1036.93L1319.69 1045.07C1319.7 1045.07 1319.7 1045.07 1319.71 1045.06L1321.91 1041.1C1321.91 1041.1 1321.92 1041.08 1321.93 1041.09L1321.94 1041.1L1324.01 1045.8L1324.02 1045.81L1324.04 1045.8L1329.12 1036.67Z" stroke="#6B7280" stroke-width="0.175809" stroke-linecap="round" stroke-linejoin="round"/>
</g>
<defs>
<clipPath id="clip0_6406_938">
<rect width="1440" height="4500" fill="white"/>
</clipPath>
</defs>
</svg>
